<?xml version="1.0" standalone="no"?>
<!DOCTYPE svg PUBLIC "-//W3C//DTD SVG 20010904//EN"
 "http://www.w3.org/TR/2001/REC-SVG-20010904/DTD/svg10.dtd">
<svg version="1.0" xmlns="http://www.w3.org/2000/svg"
 width="236.000000pt" height="509.000000pt" viewBox="0 0 236.000000 509.000000"
 preserveAspectRatio="xMidYMid meet">

<g transform="translate(0.000000,509.000000) scale(0.100000,-0.100000)"
fill="#000000" stroke="none">
<path d="M194 5067 c-92 -50 -153 -125 -178 -218 -16 -59 -17 -232 -14 -2329
l3 -2265 27 -57 c34 -74 97 -141 161 -173 l51 -25 948 0 948 0 48 22 c57 27
123 91 151 147 l21 40 0 2336 c0 2318 0 2336 -20 2375 -30 58 -77 108 -134
141 l-51 29 -960 -1 -960 0 -41 -22z m377 -77 c12 -7 19 -21 19 -41 0 -47 26
-97 62 -119 32 -20 45 -20 551 -18 l519 3 34 37 c27 30 34 46 34 77 0 69 13
74 174 69 111 -3 148 -8 176 -22 49 -25 88 -64 113 -111 l22 -40 3 -2260 c2
-2486 7 -2308 -58 -2387 -17 -20 -49 -46 -73 -57 -43 -21 -51 -21 -956 -21
-904 0 -912 0 -953 21 -50 26 -85 62 -109 114 -18 38 -19 126 -19 2311 l0
2270 26 52 c30 60 74 98 136 117 52 16 271 20 299 5z"/>
<path d="M225 4670 c-18 -20 -18 -21 4 -43 l23 -22 -13 23 c-11 18 -11 26 -1
42 16 26 10 26 -13 0z"/>
<path d="M774 4665 c-3 -8 -4 -20 -2 -27 3 -7 7 -1 10 15 6 29 1 36 -8 12z"/>
<path d="M1472 4630 c0 -19 2 -27 5 -17 2 9 2 25 0 35 -3 9 -5 1 -5 -18z"/>
<path d="M1181 4634 c0 -11 3 -14 6 -6 3 7 2 16 -1 19 -3 4 -6 -2 -5 -13z"/>
<path d="M146 4274 c-13 -12 -16 -40 -16 -134 0 -154 -4 -150 146 -150 153 0
154 1 154 148 0 153 1 152 -150 152 -94 0 -122 -3 -134 -16z m167 -85 c7 -1
21 0 32 1 17 2 18 0 5 -16 -12 -13 -12 -18 -2 -21 7 -3 12 -24 12 -54 0 -28
-4 -48 -9 -45 -5 4 -11 1 -13 -4 -5 -16 -74 -18 -70 -2 1 6 -1 11 -5 11 -19
-3 -33 2 -33 11 0 6 23 10 55 9 62 -2 83 7 39 16 -52 12 -84 27 -84 41 0 8 -4
14 -10 14 -5 0 -10 12 -10 26 0 25 2 26 35 21 28 -5 35 -2 36 11 1 15 2 15 6
0 2 -10 10 -19 16 -19z m107 -49 c0 -64 -9 -90 -31 -90 -20 0 -26 26 -8 32 7
2 13 26 14 53 5 87 4 82 15 65 5 -8 10 -35 10 -60z m-212 -12 c14 -14 16 -84
2 -93 -12 -8 -50 30 -50 51 0 19 18 54 28 54 5 0 13 -5 20 -12z"/>
<path d="M585 4219 c-4 -6 -4 -13 -1 -16 3 -4 6 -1 6 6 0 7 5 9 10 6 6 -3 10
-1 10 4 0 14 -17 14 -25 0z"/>
<path d="M742 4200 c0 -19 2 -27 5 -17 2 9 2 25 0 35 -3 9 -5 1 -5 -18z"/>
<path d="M772 4198 c7 -15 15 -23 17 -17 2 6 -4 18 -13 27 -15 15 -15 15 -4
-10z"/>
<path d="M642 4190 c0 -14 2 -19 5 -12 2 6 2 18 0 25 -3 6 -5 1 -5 -13z"/>
<path d="M682 4190 c0 -14 2 -19 5 -12 2 6 2 18 0 25 -3 6 -5 1 -5 -13z"/>
<path d="M802 4190 c0 -14 2 -19 5 -12 2 6 2 18 0 25 -3 6 -5 1 -5 -13z"/>
<path d="M871 4194 c0 -11 3 -14 6 -6 3 7 2 16 -1 19 -3 4 -6 -2 -5 -13z"/>
<path d="M932 4190 c0 -14 2 -19 5 -12 2 6 2 18 0 25 -3 6 -5 1 -5 -13z"/>
<path d="M1030 4196 c0 -8 4 -17 9 -20 5 -4 7 3 4 14 -6 23 -13 26 -13 6z"/>
<path d="M1067 4190 c-3 -11 -1 -20 4 -20 5 0 9 9 9 20 0 11 -2 20 -4 20 -2 0
-6 -9 -9 -20z"/>
<path d="M593 4193 c-13 -2 -23 -8 -23 -12 0 -5 11 -6 25 -3 14 2 25 8 25 13
0 5 -1 8 -2 8 -2 -1 -13 -4 -25 -6z"/>
<path d="M300 3716 c14 -9 19 -15 12 -16 -7 0 -10 -5 -7 -11 4 -5 4 -21 1 -35
-5 -20 -13 -24 -41 -24 -18 0 -37 -4 -40 -10 -3 -5 -22 -10 -41 -10 -38 0 -38
0 -22 -34 9 -22 16 -25 50 -22 21 2 41 6 45 10 3 3 24 6 45 6 31 0 38 -4 38
-19 0 -23 -59 -36 -67 -14 -8 20 -23 15 -23 -8 0 -18 -4 -20 -25 -15 -18 5
-27 2 -31 -9 -3 -8 -11 -12 -16 -9 -6 4 -2 -5 7 -20 18 -27 50 -35 57 -14 4
10 13 10 45 0 55 -16 94 -15 121 4 22 15 31 64 12 64 -5 0 -10 12 -10 26 0 17
-12 37 -34 58 -26 24 -35 41 -38 71 -3 36 -6 40 -33 43 l-30 2 25 -14z m-5
-106 c-3 -5 -13 -10 -21 -10 -8 0 -14 5 -14 10 0 6 9 10 21 10 11 0 17 -4 14
-10z"/>
<path d="M573 3665 c0 -22 2 -30 4 -17 2 12 2 30 0 40 -3 9 -5 -1 -4 -23z"/>
<path d="M663 3665 c0 -22 2 -30 4 -17 2 12 2 30 0 40 -3 9 -5 -1 -4 -23z"/>
<path d="M712 3655 c0 -16 2 -22 5 -12 2 9 2 23 0 30 -3 6 -5 -1 -5 -18z"/>
<path d="M765 3655 c0 -13 3 -21 8 -18 4 2 7 10 7 18 0 8 -3 16 -7 18 -5 3 -8
-5 -8 -18z"/>
<path d="M828 3653 c5 -21 7 -23 10 -9 2 10 0 22 -6 28 -6 6 -7 0 -4 -19z"/>
<path d="M912 3655 c0 -16 2 -22 5 -12 2 9 2 23 0 30 -3 6 -5 -1 -5 -18z"/>
<path d="M970 3656 c0 -8 4 -17 9 -20 5 -4 7 3 4 14 -6 23 -13 26 -13 6z"/>
<path d="M2098 3603 c12 -2 30 -2 40 0 9 3 -1 5 -23 4 -22 0 -30 -2 -17 -4z"/>
<path d="M146 3204 c-13 -12 -16 -40 -16 -139 0 -113 2 -125 19 -135 11 -5 74
-10 140 -10 109 0 121 2 131 19 5 11 10 71 10 134 0 149 2 147 -153 147 -92 0
-119 -3 -131 -16z"/>
<path d="M570 3130 c0 -16 2 -30 4 -30 2 0 6 14 8 30 3 17 1 30 -4 30 -4 0 -8
-13 -8 -30z"/>
<path d="M631 3124 c0 -11 3 -14 6 -6 3 7 2 16 -1 19 -3 4 -6 -2 -5 -13z"/>
<path d="M692 3120 c0 -14 2 -19 5 -12 2 6 2 18 0 25 -3 6 -5 1 -5 -13z"/>
<path d="M752 3120 c0 -14 2 -19 5 -12 2 6 2 18 0 25 -3 6 -5 1 -5 -13z"/>
<path d="M787 3119 c4 -13 8 -18 11 -10 2 7 -1 18 -6 23 -8 8 -9 4 -5 -13z"/>
<path d="M811 3124 c0 -11 3 -14 6 -6 3 7 2 16 -1 19 -3 4 -6 -2 -5 -13z"/>
<path d="M872 3120 c0 -14 2 -19 5 -12 2 6 2 18 0 25 -3 6 -5 1 -5 -13z"/>
<path d="M846 3113 c-6 -14 -5 -15 5 -6 7 7 10 15 7 18 -3 3 -9 -2 -12 -12z"/>
<path d="M941 3114 c0 -11 3 -14 6 -6 3 7 2 16 -1 19 -3 4 -6 -2 -5 -13z"/>
<path d="M974 3100 c0 -13 4 -16 10 -10 7 7 7 13 0 20 -6 6 -10 3 -10 -10z"/>
<path d="M141 2666 c-8 -10 -9 -21 -3 -33 5 -10 6 -27 1 -38 -4 -11 -8 -56 -8
-101 -1 -109 2 -112 143 -113 157 -2 157 -3 155 150 -1 90 -5 124 -16 135 -21
20 -255 20 -272 0z m37 -41 c-3 -14 -1 -25 4 -25 5 0 6 -4 3 -10 -13 -20 -23
-9 -23 25 0 19 5 35 10 35 6 0 8 -11 6 -25z m76 -50 c-4 -8 -8 -15 -10 -15 -2
0 -4 7 -4 15 0 8 4 15 10 15 5 0 7 -7 4 -15z m-30 -14 c3 -4 3 -11 0 -14 -8
-8 -34 3 -34 14 0 11 27 12 34 0z m126 -83 c0 -4 -9 -9 -20 -9 -11 -1 -25 -2
-32 -3 -6 -1 -13 4 -15 9 -1 6 13 10 32 11 19 0 35 -3 35 -8z m57 -4 c-3 -3
-12 -4 -19 -1 -8 3 -5 6 6 6 11 1 17 -2 13 -5z m-27 -46 c0 -6 -9 -8 -20 -5
-10 3 -21 0 -24 -7 -2 -6 -5 -1 -5 10 -1 17 4 20 24 16 14 -2 25 -9 25 -14z"/>
<path d="M590 2626 c0 -2 7 -7 16 -10 8 -3 12 -2 9 4 -6 10 -25 14 -25 6z"/>
<path d="M983 2595 c0 -22 2 -30 4 -17 2 12 2 30 0 40 -3 9 -5 -1 -4 -23z"/>
<path d="M571 2597 c-1 -30 23 -47 41 -29 8 8 5 9 -10 5 -17 -4 -21 0 -25 24
l-4 28 -2 -28z"/>
<path d="M643 2594 c-3 -8 -2 -19 3 -24 5 -5 9 1 9 16 0 28 -3 30 -12 8z"/>
<path d="M707 2603 c-10 -10 -8 -43 2 -43 5 0 7 10 3 22 -4 17 -2 20 11 15 10
-4 17 -2 17 3 0 11 -23 13 -33 3z"/>
<path d="M760 2585 c0 -18 5 -25 20 -25 11 0 20 4 20 10 0 5 -7 7 -15 4 -10
-4 -15 0 -15 11 0 11 5 15 15 11 8 -3 15 -1 15 4 0 6 -9 10 -20 10 -15 0 -20
-7 -20 -25z"/>
<path d="M822 2585 c0 -16 2 -22 5 -12 2 9 2 23 0 30 -3 6 -5 -1 -5 -18z"/>
<path d="M892 2585 c0 -16 2 -22 5 -12 2 9 2 23 0 30 -3 6 -5 -1 -5 -18z"/>
<path d="M920 2573 c0 -21 4 -33 8 -27 4 6 14 14 22 17 12 4 11 6 -2 6 -10 1
-18 7 -18 15 0 8 8 17 18 19 13 4 11 5 -5 6 -20 1 -23 -4 -23 -36z"/>
<path d="M1006 2603 c7 -4 14 -17 17 -28 5 -16 5 -15 4 4 -1 14 -9 26 -17 28
-10 3 -11 2 -4 -4z"/>
<path d="M865 2579 c-4 -6 -5 -12 -2 -15 2 -3 7 2 10 11 7 17 1 20 -8 4z"/>
<path d="M1057 2573 c3 -7 6 -13 8 -13 2 0 5 6 8 13 3 8 -1 14 -8 14 -7 0 -11
-6 -8 -14z"/>
<path d="M2103 2533 c9 -2 25 -2 35 0 9 3 1 5 -18 5 -19 0 -27 -2 -17 -5z"/>
<path d="M216 2081 c-19 -21 -34 -107 -17 -96 6 3 11 22 11 41 0 38 16 50 54
40 27 -7 42 -52 20 -60 -8 -3 -14 -17 -14 -32 0 -17 -6 -28 -19 -31 -11 -3
-22 -16 -25 -29 -4 -13 -21 -32 -39 -41 l-32 -18 39 -3 c45 -4 59 10 50 51 -4
21 -2 27 11 27 11 0 15 -5 12 -15 -4 -8 -2 -17 3 -20 6 -4 10 -15 10 -26 0
-17 7 -19 64 -19 36 0 68 5 71 10 4 7 -15 20 -45 33 l-52 22 7 40 c11 58 7 87
-14 115 -23 32 -71 38 -95 11z m85 -104 c-1 -12 -15 -9 -19 4 -3 6 1 10 8 8 6
-3 11 -8 11 -12z"/>
<path d="M571 2060 c0 -33 1 -34 10 -11 6 16 6 28 -1 35 -7 7 -10 -1 -9 -24z"/>
<path d="M608 2069 c-9 -10 -14 -20 -11 -23 7 -7 36 22 31 32 -2 4 -10 0 -20
-9z"/>
<path d="M682 2060 c0 -19 2 -27 5 -17 2 9 2 25 0 35 -3 9 -5 1 -5 -18z"/>
<path d="M652 2050 c0 -14 2 -19 5 -12 2 6 2 18 0 25 -3 6 -5 1 -5 -13z"/>
<path d="M732 2050 c0 -14 2 -19 5 -12 2 6 2 18 0 25 -3 6 -5 1 -5 -13z"/>
<path d="M762 2050 c0 -14 2 -19 5 -12 2 6 2 18 0 25 -3 6 -5 1 -5 -13z"/>
<path d="M792 2050 c0 -14 2 -19 5 -12 2 6 2 18 0 25 -3 6 -5 1 -5 -13z"/>
<path d="M822 2050 c0 -14 2 -19 5 -12 2 6 2 18 0 25 -3 6 -5 1 -5 -13z"/>
<path d="M912 2050 c0 -14 2 -19 5 -12 2 6 2 18 0 25 -3 6 -5 1 -5 -13z"/>
<path d="M942 2050 c0 -14 2 -19 5 -12 2 6 2 18 0 25 -3 6 -5 1 -5 -13z"/>
<path d="M220 2000 c0 -6 7 -10 15 -10 8 0 15 2 15 4 0 2 -7 6 -15 10 -8 3
-15 1 -15 -4z"/>
<path d="M142 1598 c-8 -8 -12 -54 -12 -140 0 -116 2 -128 19 -138 11 -5 71
-10 134 -10 150 0 147 -3 147 156 0 80 -4 124 -12 132 -8 8 -53 12 -138 12
-85 0 -130 -4 -138 -12z m250 -115 c-6 -2 -10 -9 -7 -14 4 -5 -1 -6 -9 -3 -20
8 -11 24 12 23 11 0 12 -2 4 -6z"/>
<path d="M574 1520 c1 -18 7 -26 24 -28 12 -2 22 1 22 6 0 6 -9 8 -19 5 -15
-4 -21 1 -24 19 -4 22 -4 22 -3 -2z"/>
<path d="M660 1533 c5 -2 8 -8 6 -12 -3 -4 0 -13 5 -21 8 -12 9 -9 7 9 -2 14
-9 26 -16 27 -7 1 -8 0 -2 -3z"/>
<path d="M702 1515 c0 -16 2 -22 5 -12 2 9 2 23 0 30 -3 6 -5 -1 -5 -18z"/>
<path d="M745 1531 c-3 -5 0 -13 6 -17 7 -4 9 -3 5 4 -3 5 0 13 6 15 9 4 10 6
1 6 -6 1 -14 -3 -18 -8z"/>
<path d="M210 1057 c0 -7 5 -18 12 -25 17 -17 58 -15 58 2 0 8 7 16 15 20 21
8 45 -3 45 -20 0 -8 7 -14 15 -14 9 0 15 9 15 25 0 25 -1 25 -80 25 -59 0 -80
-3 -80 -13z"/>
<path d="M391 1031 c-15 -27 -14 -46 4 -61 8 -7 15 -29 15 -48 0 -25 3 -33 10
-26 15 15 8 146 -7 151 -6 2 -16 -5 -22 -16z"/>
<path d="M692 990 c0 -19 2 -27 5 -17 2 9 2 25 0 35 -3 9 -5 1 -5 -18z"/>
<path d="M133 940 c0 -36 2 -50 4 -32 2 17 2 47 0 65 -2 17 -4 3 -4 -33z"/>
<path d="M576 984 c-4 -9 -4 -19 -1 -22 2 -3 7 3 11 12 4 9 4 19 1 22 -2 3 -7
-3 -11 -12z"/>
<path d="M640 980 c0 -11 2 -20 4 -20 2 0 6 9 9 20 3 11 1 20 -4 20 -5 0 -9
-9 -9 -20z"/>
<path d="M310 940 c0 -11 2 -20 4 -20 2 0 6 9 9 20 3 11 1 20 -4 20 -5 0 -9
-9 -9 -20z"/>
<path d="M2103 923 c9 -2 25 -2 35 0 9 3 1 5 -18 5 -19 0 -27 -2 -17 -5z"/>
<path d="M173 903 c-18 -7 -16 -23 2 -23 8 0 15 7 15 15 0 8 -1 15 -2 14 -2 0
-9 -3 -15 -6z"/>
<path d="M194 855 c-7 -11 -11 -31 -10 -45 1 -19 7 -26 29 -28 28 -3 38 12 13
21 -8 3 -16 21 -18 39 -3 30 -4 31 -14 13z"/>
<path d="M377 823 c-12 -12 -7 -43 7 -43 18 0 39 27 31 40 -7 11 -28 13 -38 3z"/>
<path d="M1920 505 c0 -8 5 -15 11 -15 5 0 8 4 4 9 -3 5 3 12 12 14 14 4 13 5
-4 6 -14 1 -23 -5 -23 -14z"/>
<path d="M1970 495 c0 -24 4 -31 19 -31 14 0 17 4 11 11 -6 7 -5 16 3 25 10
10 9 11 -2 5 -8 -4 -17 -2 -22 6 -6 10 -9 5 -9 -16z"/>
<path d="M2041 473 c0 -21 3 -32 6 -25 2 6 11 12 20 12 21 0 13 44 -9 48 -15
3 -18 -4 -17 -35z m29 12 c0 -8 -4 -15 -10 -15 -5 0 -10 7 -10 15 0 8 5 15 10
15 6 0 10 -7 10 -15z"/>
<path d="M2022 480 c0 -14 2 -19 5 -12 2 6 2 18 0 25 -3 6 -5 1 -5 -13z"/>
<path d="M1950 481 c0 -5 -8 -12 -17 -14 -14 -4 -12 -5 5 -6 13 -1 22 5 22 14
0 8 -2 15 -5 15 -3 0 -5 -4 -5 -9z"/>
<path d="M810 180 c0 -6 135 -10 385 -10 250 0 385 4 385 10 0 6 -135 10 -385
10 -250 0 -385 -4 -385 -10z"/>
</g>
</svg>
